<?xml version="1.0" encoding="UTF-8"?><svg id="Layer_2" xmlns="http://www.w3.org/2000/svg" viewBox="0 0 253.25 46.1"><defs><style>.cls-1{fill:#fff;}.cls-2{fill:#42b3ac;}</style></defs><g id="Layer_1-2"><g><g><g><path class="cls-1" d="M3.15,3.78c-.47,.71-.81,1.51-.99,2.38h3.37L3.15,3.78Z"/><path class="cls-1" d="M6.22,2.09c-.86,.18-1.66,.52-2.38,.99l2.38,2.38V2.09Z"/><path class="cls-1" d="M9.61,3.08c-.71-.47-1.51-.81-2.38-.99v3.37l2.38-2.38Z"/><path class="cls-1" d="M6.22,11.1v-3.37l-2.38,2.38c.71,.47,1.51,.81,2.38,.99Z"/><path class="cls-1" d="M2.16,7.04c.18,.86,.52,1.66,.99,2.38l2.38-2.38H2.16Z"/><path class="cls-1" d="M6.72,12.42c-3.15,0-5.7-2.56-5.7-5.7S3.57,1.01,6.72,1.01s5.7,2.56,5.7,5.7h1.01c0-3.7-3.01-6.72-6.72-6.72S0,3.01,0,6.72s3.01,6.72,6.72,6.72c.85,0,1.66-.16,2.41-.45l-.36-.94c-.64,.25-1.33,.38-2.05,.38Z"/><path class="cls-1" d="M11.12,6.15c-.17-.83-.5-1.64-.98-2.38l-2.38,2.38h3.36Z"/></g><path class="cls-1" d="M32.23,7.52c0,.14,.01,.28,0,.42,0,.12,.03,.17,.16,.2,.41,.09,.82,.18,1.21,.32,.42,.15,.73,.45,.87,.89,.08,.24,.04,.48-.05,.71-.34,.86-.68,1.72-1.05,2.57-1.65,3.82-3.31,7.63-4.96,11.44-.02,.06-.05,.11-.08,.19-.03-.06-.06-.11-.08-.15-1.07-2.26-2.13-4.51-3.2-6.77-.06-.12-.05-.21,0-.33,.95-1.93,1.9-3.85,2.83-5.79,.31-.65,.66-1.26,1.12-1.82,.57-.7,1.28-1.12,2.16-1.27,.12-.02,.14-.07,.14-.18,0-.14,0-.29,0-.44h-6.41c0,.17-.02,.33-.01,.5,0,.04,.07,.09,.12,.1,.25,.06,.5,.1,.75,.17,.36,.1,.66,.3,.91,.57,.29,.31,.41,.67,.26,1.08-.23,.63-.46,1.27-.74,1.88-.43,.91-.91,1.79-1.37,2.69-.18,.36-.37,.71-.56,1.08-.02-.03-.04-.04-.04-.06-.61-1.31-1.24-2.61-1.84-3.93-.26-.57-.47-1.17-.56-1.8-.1-.71,.18-1.22,.87-1.45,.36-.12,.75-.17,1.13-.24,.13-.02,.19-.05,.18-.19-.01-.14-.01-.28-.02-.42H15.56v.57c.21,.03,.4,.06,.59,.09,.72,.15,1.32,.49,1.8,1.05,.5,.59,.91,1.23,1.22,1.93,1.11,2.49,2.23,4.97,3.34,7.46,.03,.07,.04,.18,.01,.24-.91,1.76-1.84,3.53-2.76,5.29-.02,.03-.03,.06-.06,.1-.04-.06-.06-.11-.09-.16-2.12-4.02-4.24-8.03-6.35-12.05-.37-.71-.65-1.46-.77-2.26-.1-.69,.19-1.2,.86-1.42,.37-.12,.76-.17,1.14-.24,.13-.02,.19-.05,.18-.19-.01-.14-.02-.28-.02-.42H6.1v.57c.33,.06,.66,.1,.99,.17,.61,.14,1.12,.46,1.53,.93,.47,.54,.86,1.13,1.18,1.78,2.9,5.99,5.81,11.97,8.71,17.95,.02,.05,.05,.09,.07,.13h.57c1.04-2.12,2.08-4.25,3.13-6.38,.03,5.45,.06,10.91,0,16.36-.03,2.52-1.52,4.26-3.99,4.99-1.19,.35-2.43,.51-3.63,.85-.47,.13-.87,.51-1.31,.78l.18,.44h19.41l.26-.49c-.45-.26-.88-.62-1.36-.75-1-.28-2.05-.39-3.06-.65-3.09-.8-4.55-2.73-4.56-5.96,0-5.26,0-10.52,0-15.77,.96,2.14,1.92,4.27,2.87,6.41,.03,.06,.06,.12,.09,.18h.57c1.64-3.81,3.27-7.62,4.91-11.43,.95-2.2,1.89-4.4,2.84-6.6,.37-.85,.9-1.58,1.59-2.2,.45-.41,1.01-.58,1.59-.7,.05-.01,.1-.03,.14-.04v-.57h-6.61Z"/></g><path class="cls-1" d="M59.14,13.18c3.95,0,7.34,1.26,9.79,3.63l-1.26,2.61c-2.76-2.45-5.29-3.32-8.53-3.32-6.31,0-9.95,4.18-9.95,11.76s3.63,11.92,9.95,11.92c3.24,0,5.76-.95,8.53-3.31l1.26,2.53c-2.45,2.45-5.84,3.63-9.79,3.63-8.21,0-13.34-5.68-13.34-14.76s5.13-14.68,13.34-14.68Z"/><path class="cls-1" d="M80.15,21.47c5.84,0,9.63,4.18,9.63,10.58s-3.79,10.58-9.63,10.58-9.55-4.18-9.55-10.58,3.79-10.58,9.55-10.58Zm0,2.76c-3.95,0-6.24,2.84-6.24,7.81s2.21,7.81,6.24,7.81,6.31-2.68,6.31-7.81-2.37-7.81-6.31-7.81Z"/><path class="cls-1" d="M100.76,21.47c2.76,0,5.53,1.03,7.18,2.68l-1.11,2.45c-2.05-1.66-3.95-2.37-5.92-2.37-4.18,0-6.63,2.92-6.63,7.89s2.45,7.74,6.63,7.74c1.97,0,3.87-.71,5.92-2.29l1.11,2.37c-1.74,1.66-4.58,2.68-7.34,2.68-5.92,0-9.71-4.18-9.71-10.5s3.87-10.66,9.87-10.66Z"/><path class="cls-1" d="M117.03,31.73l11.21,10.58h-4.26l-10.5-9.79v9.79h-3.24V12.55h3.24V31.34l9.63-9.31h4.1l-10.18,9.71Z"/><path class="cls-1" d="M141.91,24.55h-5.84v11.13c0,3,1.34,4.1,3.55,4.1,.79,0,1.5-.16,2.21-.39v2.76c-.87,.32-1.82,.47-2.84,.47-3.87,0-6.16-2.29-6.16-6.47v-11.6h-3.95v-2.61h3.95v-5.21l3.24-1.11v6.31h5.84v2.61Z"/><path class="cls-1" d="M157.23,21.94h3.24v20.37h-3.24v-3.71c-1.18,2.6-3.71,4.03-6.87,4.03-5.45,0-9-4.18-9-10.5s3.63-10.66,9-10.66c3.16,0,5.6,1.5,6.87,4.03v-3.55Zm-6.24,2.29c-4.03,0-6.32,2.92-6.32,7.89s2.29,7.74,6.32,7.74,6.24-2.84,6.24-7.81-2.21-7.81-6.24-7.81Z"/><path class="cls-1" d="M162.46,17.05v-3.71h3.95v3.71h-3.95Zm3.55,25.26h-3.24V21.94h3.24v20.37Z"/><path class="cls-1" d="M172.81,42.31h-3.24V12.55h3.24v29.76Z"/><path class="cls-2" d="M208.14,37.65l8.21-24.15h3.32l-10.1,28.81h-2.76l-8.21-23.52-8.29,23.52h-2.76l-10.1-28.81h3.39l8.13,24.07,8.37-24.07,2.6,.08,8.21,24.08Z"/><path class="cls-2" d="M221.02,17.05v-3.71h3.95v3.71h-3.95Zm3.55,25.26h-3.24V21.94h3.24v20.37Z"/><path class="cls-2" d="M234.92,31.73l11.21,10.58h-4.26l-10.5-9.79v9.79h-3.24V12.55h3.24V31.34l9.63-9.31h4.1l-10.18,9.71Z"/><path class="cls-2" d="M249.3,17.05v-3.71h3.95v3.71h-3.95Zm3.55,25.26h-3.24V21.94h3.24v20.37Z"/></g></g></svg>